<svg version="1.2" xmlns="http://www.w3.org/2000/svg" viewBox="0 0 44 44" width="44" height="44"><style>.a{fill:#bb3fa2}</style><path fill-rule="evenodd" class="a" d="m5.4 42.2q-1.2-0.5-2.2-1.4-0.9-1-1.4-2.2-0.5-1.3-0.6-2.6l0.1-27q0-1.5 0.5-3 0.6-1.4 1.7-2.5 1.1-1.1 2.5-1.7 1.5-0.5 3-0.6h26q1.5 0.1 3 0.6 1.4 0.6 2.5 1.7 1.1 1.1 1.7 2.5 0.5 1.5 0.6 3l-0.1 27q0 1.3-0.5 2.6-0.5 1.2-1.4 2.2-1 0.9-2.2 1.4-1.3 0.5-2.6 0.5h-28q-1.3 0-2.6-0.5zm29.6-3q0.8 0 1.6-0.3 0.8-0.3 1.4-0.9 0.6-0.6 0.9-1.4 0.4-0.8 0.4-1.6v-15.5q0-0.6-0.3-1.2-0.2-0.6-0.7-1.1-0.5-0.5-1.1-0.7-0.6-0.2-1.2-0.3h-28q-0.6 0.1-1.2 0.3-0.6 0.3-1.1 0.7-0.5 0.5-0.7 1.1-0.2 0.6-0.3 1.2v15.5q0.1 0.8 0.4 1.6 0.3 0.8 0.9 1.4 0.6 0.6 1.4 0.9 0.8 0.3 1.6 0.3zm-27.6-34.1q-0.8 0.3-1.4 0.9-0.6 0.6-0.9 1.4-0.4 0.8-0.4 1.6v4.6q0.4-0.2 0.8-0.4 0.4-0.1 0.8-0.2 0.4-0.1 0.9-0.2 0.4 0 0.8-0.1h28q0.4 0.1 0.8 0.1 0.5 0.1 0.9 0.2 0.4 0.1 0.8 0.2 0.4 0.2 0.7 0.4v-4.6q0-0.8-0.3-1.6-0.3-0.8-0.9-1.4-0.6-0.6-1.4-0.9-0.8-0.3-1.6-0.4h-26q-0.8 0.1-1.6 0.4z"/></svg>