<svg id="Layer_1" data-name="Layer 1" xmlns="http://www.w3.org/2000/svg" viewBox="0 0 44 44"><defs><style>.cls-1{fill:#457ac9;}</style></defs><title>ic_card</title><path class="cls-1" d="M36,1.25H8A6.76,6.76,0,0,0,1.25,8V35A7.76,7.76,0,0,0,9,42.75H35A7.76,7.76,0,0,0,42.75,35V8A6.76,6.76,0,0,0,36,1.25Zm-1,3.5A4.26,4.26,0,0,1,39.25,9V24.49A3.26,3.26,0,0,1,36,27.75H8a3.26,3.26,0,0,1-3.26-3.26V9A4.26,4.26,0,0,1,9,4.75Zm0,34.5H9A4.26,4.26,0,0,1,4.75,35V30.41A6.78,6.78,0,0,0,8,31.25H36a6.78,6.78,0,0,0,3.26-.84V35A4.26,4.26,0,0,1,35,39.25Z"/></svg>