<svg id="Layer_1" data-name="Layer 1" xmlns="http://www.w3.org/2000/svg" viewBox="0 0 44 44"><defs><style>.cls-1{fill:#a04ebd;}</style></defs><title>ic_code</title><path class="cls-1" d="M40.5,30.93H3.5a1.75,1.75,0,0,1,0-3.5h37a1.75,1.75,0,0,1,0,3.5Z"/><path class="cls-1" d="M26,19.69H18a1.4,1.4,0,1,1,0-2.8h8a1.4,1.4,0,0,1,0,2.8Z"/><path class="cls-1" d="M20,23.15a1.37,1.37,0,0,1-.7-.19,1.39,1.39,0,0,1-.51-1.91l4-6.93a1.4,1.4,0,0,1,2.42,1.4l-4,6.93A1.4,1.4,0,0,1,20,23.15Z"/><path class="cls-1" d="M24,23.15a1.4,1.4,0,0,1-1.21-.7l-4-6.93a1.4,1.4,0,1,1,2.42-1.4l4,6.93A1.39,1.39,0,0,1,24.7,23,1.37,1.37,0,0,1,24,23.15Z"/><path class="cls-1" d="M40,19.69H32a1.4,1.4,0,1,1,0-2.8h8a1.4,1.4,0,1,1,0,2.8Z"/><path class="cls-1" d="M34,23.15a1.37,1.37,0,0,1-.7-.19,1.39,1.39,0,0,1-.51-1.91l4-6.93a1.4,1.4,0,0,1,2.42,1.4l-4,6.93A1.4,1.4,0,0,1,34,23.15Z"/><path class="cls-1" d="M38,23.15a1.4,1.4,0,0,1-1.21-.7l-4-6.93a1.4,1.4,0,0,1,2.42-1.4l4,6.93A1.39,1.39,0,0,1,38.7,23,1.37,1.37,0,0,1,38,23.15Z"/><path class="cls-1" d="M12,19.69H4a1.4,1.4,0,1,1,0-2.8h8a1.4,1.4,0,1,1,0,2.8Z"/><path class="cls-1" d="M6,23.15A1.37,1.37,0,0,1,5.3,23a1.39,1.39,0,0,1-.51-1.91l4-6.93a1.4,1.4,0,1,1,2.42,1.4l-4,6.93A1.4,1.4,0,0,1,6,23.15Z"/><path class="cls-1" d="M10,23.15a1.4,1.4,0,0,1-1.21-.7l-4-6.93a1.4,1.4,0,1,1,2.42-1.4l4,6.93A1.39,1.39,0,0,1,10.7,23,1.37,1.37,0,0,1,10,23.15Z"/></svg>