<svg id="Layer_1" data-name="Layer 1" xmlns="http://www.w3.org/2000/svg" viewBox="0 0 44 44"><defs><style>.cls-1{fill:#457ac9;}</style></defs><title>ic_chip</title><path class="cls-1" d="M35.1,20.64H35L9,20.36a7.73,7.73,0,0,1-7.67-7.83l0-2A7.68,7.68,0,0,1,3.7,5.08,7.78,7.78,0,0,1,9.2,2.87l26,.27A7.76,7.76,0,0,1,42.87,11l0,2a7.77,7.77,0,0,1-7.75,7.67ZM9.12,6.37a4.23,4.23,0,0,0-4.25,4.2l0,2a4.23,4.23,0,0,0,4.2,4.29l26,.28s0,0,.05,0a4.19,4.19,0,0,0,3-1.22,4.26,4.26,0,0,0,1.28-3l0-2a4.26,4.26,0,0,0-4.21-4.29l-26-.27Z"/><path class="cls-1" d="M34.11,13.63h0l-24-.25a1.75,1.75,0,0,1,0-3.5h0l24,.25a1.75,1.75,0,0,1,0,3.5Z"/><path class="cls-1" d="M10.39,40.88H10.3L2.8,40.8a1.75,1.75,0,0,1,0-3.5h0l7.5.08h.05a4.23,4.23,0,0,0,4.24-4.21l0-2a4.25,4.25,0,0,0-4.2-4.29L3,26.8a1.75,1.75,0,0,1,0-3.5H3l7.49.08a7.75,7.75,0,0,1,7.67,7.83l0,2a7.73,7.73,0,0,1-7.74,7.67Z"/><path class="cls-1" d="M9.39,33.87h0l-6.5-.07A1.75,1.75,0,0,1,1.14,32,1.73,1.73,0,0,1,2.91,30.3l6.5.07a1.75,1.75,0,0,1,0,3.5Z"/><path class="cls-1" d="M40.82,41.2h0l-11.5-.12a7.77,7.77,0,0,1-7.67-7.83l0-2a7.75,7.75,0,0,1,7.75-7.67h.08L41,23.7a1.75,1.75,0,0,1,0,3.5h0l-11.5-.12a4.25,4.25,0,0,0-4.3,4.2l0,2a4.26,4.26,0,0,0,4.21,4.3l11.5.12a1.75,1.75,0,0,1,0,3.5Z"/><path class="cls-1" d="M40.89,34.2h0l-10.49-.11a1.75,1.75,0,1,1,0-3.5l10.5.11a1.75,1.75,0,0,1,0,3.5Z"/></svg>