<svg id="Layer_1" data-name="Layer 1" xmlns="http://www.w3.org/2000/svg" viewBox="0 0 44 44"><defs><style>.cls-1{fill:#be3b8b;}</style></defs><title>Artboard 44</title><path class="cls-1" d="M35,42.75H9A7.76,7.76,0,0,1,1.25,35V9A7.76,7.76,0,0,1,9,1.25H35A7.76,7.76,0,0,1,42.75,9V35A7.76,7.76,0,0,1,35,42.75ZM9,4.75A4.26,4.26,0,0,0,4.75,9V35A4.26,4.26,0,0,0,9,39.25H35A4.26,4.26,0,0,0,39.25,35V9A4.26,4.26,0,0,0,35,4.75Z"/><path class="cls-1" d="M18.67,30.42a1.72,1.72,0,0,1-1.24-.52l-6.67-6.66a1.75,1.75,0,0,1,2.48-2.48l5.43,5.43L30.76,14.1a1.75,1.75,0,0,1,2.48,2.47L19.9,29.9A1.71,1.71,0,0,1,18.67,30.42Z"/></svg>