<svg id="Layer_1" data-name="Layer 1" xmlns="http://www.w3.org/2000/svg" viewBox="0 0 44 44"><defs><style>.cls-1{fill:#c5345b;}</style></defs><title>Artboard 41</title><path class="cls-1" d="M16.2,19.94H5a3.75,3.75,0,0,1-3.75-3.75V5A3.75,3.75,0,0,1,5,1.25H16.2A3.75,3.75,0,0,1,20,5V16.19A3.75,3.75,0,0,1,16.2,19.94ZM5,4.75A.25.25,0,0,0,4.75,5V16.19a.25.25,0,0,0,.25.25H16.2a.25.25,0,0,0,.25-.25V5a.25.25,0,0,0-.25-.25Z"/><path class="cls-1" d="M16.2,42.75H5A3.75,3.75,0,0,1,1.25,39V27.79A3.75,3.75,0,0,1,5,24H16.2A3.75,3.75,0,0,1,20,27.79V39A3.75,3.75,0,0,1,16.2,42.75ZM5,27.54a.25.25,0,0,0-.25.25V39a.25.25,0,0,0,.25.25H16.2a.25.25,0,0,0,.25-.25V27.79a.25.25,0,0,0-.25-.25Z"/><path class="cls-1" d="M39,19.94H27.8a3.75,3.75,0,0,1-3.75-3.75V5A3.75,3.75,0,0,1,27.8,1.25H39A3.75,3.75,0,0,1,42.75,5V16.19A3.75,3.75,0,0,1,39,19.94ZM27.8,4.75a.25.25,0,0,0-.25.25V16.19a.25.25,0,0,0,.25.25H39a.25.25,0,0,0,.25-.25V5A.25.25,0,0,0,39,4.75Z"/><path class="cls-1" d="M39,42.75H27.8A3.75,3.75,0,0,1,24.05,39V27.79A3.75,3.75,0,0,1,27.8,24H39a3.75,3.75,0,0,1,3.75,3.75V39A3.75,3.75,0,0,1,39,42.75ZM27.8,27.54a.25.25,0,0,0-.25.25V39a.25.25,0,0,0,.25.25H39a.25.25,0,0,0,.25-.25V27.79a.25.25,0,0,0-.25-.25Z"/></svg>