<svg width="44" height="44" viewBox="0 0 44 44" fill="none" xmlns="http://www.w3.org/2000/svg">
<path d="M17.6111 3.5H4.38889C3.35 3.5 2.5 4.35 2.5 5.38889V18.6111C2.5 19.65 3.35 20.5 4.38889 20.5H17.6111C18.65 20.5 19.5 19.65 19.5 18.6111V5.38889C19.5 4.35 18.65 3.5 17.6111 3.5ZM17.6111 18.6111H4.38889V5.38889H17.6111V18.6111ZM16.6572 9.16667L15.3256 7.82556L9.10167 14.0494L6.665 11.6222L5.32389 12.9539L9.10167 16.7222L16.6572 9.16667Z" fill="#C83044"/>
<path d="M18.1111 25.8889V39.1111H4.88889V25.8889H18.1111ZM18.1111 24H4.88889C3.85 24 3 24.85 3 25.8889V39.1111C3 40.15 3.85 41 4.88889 41H18.1111C19.15 41 20 40.15 20 39.1111V25.8889C20 24.85 19.15 24 18.1111 24Z" fill="#C83044"/>
<path d="M42.25 34.5H23.75C23.2859 34.5 22.8408 34.3156 22.5126 33.9874C22.1844 33.6592 22 33.2141 22 32.75C22 32.2859 22.1844 31.8408 22.5126 31.5126C22.8408 31.1844 23.2859 31 23.75 31H42.25C42.7141 31 43.1592 31.1844 43.4874 31.5126C43.8156 31.8408 44 32.2859 44 32.75C44 33.2141 43.8156 33.6592 43.4874 33.9874C43.1592 34.3156 42.7141 34.5 42.25 34.5V34.5Z" fill="#C83044"/>
<path d="M42.25 13.5H23.75C23.2859 13.5 22.8408 13.3156 22.5126 12.9874C22.1844 12.6592 22 12.2141 22 11.75C22 11.2859 22.1844 10.8408 22.5126 10.5126C22.8408 10.1844 23.2859 10 23.75 10H42.25C42.7141 10 43.1592 10.1844 43.4874 10.5126C43.8156 10.8408 44 11.2859 44 11.75C44 12.2141 43.8156 12.6592 43.4874 12.9874C43.1592 13.3156 42.7141 13.5 42.25 13.5V13.5Z" fill="#C83044"/>
</svg>
