<svg id="Layer_1" data-name="Layer 1" xmlns="http://www.w3.org/2000/svg" viewBox="0 0 44 44"><defs><style>.cls-1{fill:#b743ba;}</style></defs><title>ic_dialog</title><path class="cls-1" d="M35,39.77H9A7.76,7.76,0,0,1,1.25,32V12A7.76,7.76,0,0,1,9,4.23H35A7.76,7.76,0,0,1,42.75,12V32A7.76,7.76,0,0,1,35,39.77ZM9,7.73A4.25,4.25,0,0,0,4.75,12V32A4.25,4.25,0,0,0,9,36.27H35A4.25,4.25,0,0,0,39.25,32V12A4.25,4.25,0,0,0,35,7.73Z"/><path class="cls-1" d="M34.2,33H27.7a1.75,1.75,0,0,1,0-3.5h6.5a1.75,1.75,0,0,1,0,3.5Z"/><path class="cls-1" d="M22.77,33h-6.5a1.75,1.75,0,1,1,0-3.5h6.5a1.75,1.75,0,0,1,0,3.5Z"/><path class="cls-1" d="M20.7,14.53H9.8a1.75,1.75,0,0,1,0-3.5H20.7a1.75,1.75,0,0,1,0,3.5Z"/><path class="cls-1" d="M30,21.33H9.8a1.75,1.75,0,0,1,0-3.5H30a1.75,1.75,0,0,1,0,3.5Z"/></svg>