<svg id="Layer_1" data-name="Layer 1" xmlns="http://www.w3.org/2000/svg" viewBox="0 0 26 26"><defs><style>.cls-1{fill:#828282;}</style></defs><title>Artboard 91</title><path class="cls-1" d="M13,8a4.4,4.4,0,0,0-.73.06L15,10.75l.28.28,2.69,2.7A4.4,4.4,0,0,0,18,13,5,5,0,0,0,13,8Z"/><path class="cls-1" d="M7.09,5.71l0-.09L5.71,4.29A1,1,0,0,0,4.29,5.71L6.12,7.53a23.74,23.74,0,0,0-4.93,4.89l0,0a1.21,1.21,0,0,0-.09.2.76.76,0,0,0-.06.16A1.21,1.21,0,0,0,1,13a1.21,1.21,0,0,0,0,.19.76.76,0,0,0,.06.16,1.21,1.21,0,0,0,.09.2l0,0C1.4,13.88,6.56,21,13,21a10.84,10.84,0,0,0,5.14-1.44l2.15,2.15a1,1,0,0,0,1.42,0,1,1,0,0,0,.05-1.33Zm3.21,6,4,4a3,3,0,0,1-4-4ZM13,19c-4.44,0-8.43-4.4-9.73-6A21.77,21.77,0,0,1,7.56,9l1.27,1.28a5,5,0,0,0,6.92,6.92l.91.9A8.38,8.38,0,0,1,13,19Z"/><path class="cls-1" d="M25,12.81a.76.76,0,0,0-.06-.16,1.21,1.21,0,0,0-.09-.2l0,0C24.6,12.12,19.44,5,13,5a9.6,9.6,0,0,0-3.2.59L11.41,7.2A7.06,7.06,0,0,1,13,7c4.44,0,8.43,4.4,9.73,6A23.44,23.44,0,0,1,20,15.8l1.42,1.42a23.07,23.07,0,0,0,3.37-3.64l0,0a1.21,1.21,0,0,0,.09-.2.76.76,0,0,0,.06-.16A1.21,1.21,0,0,0,25,13,1.21,1.21,0,0,0,25,12.81Z"/></svg>