<svg id="Layer_1" data-name="Layer 1" xmlns="http://www.w3.org/2000/svg" viewBox="0 0 44 44"><defs><style>.cls-1{fill:#bb3fa2;}</style></defs><title>Artboard 45</title><path class="cls-1" d="M40.5,23.75H3.5a1.75,1.75,0,0,1,0-3.5h37a1.75,1.75,0,0,1,0,3.5Z"/><path class="cls-1" d="M35,15.75H9A7.76,7.76,0,0,1,1.25,8V3a1.75,1.75,0,0,1,3.5,0V8A4.26,4.26,0,0,0,9,12.25H35A4.26,4.26,0,0,0,39.25,8V3a1.75,1.75,0,0,1,3.5,0V8A7.76,7.76,0,0,1,35,15.75Z"/><path class="cls-1" d="M41,42.75A1.75,1.75,0,0,1,39.25,41V36A4.26,4.26,0,0,0,35,31.75H9A4.26,4.26,0,0,0,4.75,36v5a1.75,1.75,0,0,1-3.5,0V36A7.76,7.76,0,0,1,9,28.25H35A7.76,7.76,0,0,1,42.75,36v5A1.75,1.75,0,0,1,41,42.75Z"/></svg>