<svg id="Layer_1" data-name="Layer 1" xmlns="http://www.w3.org/2000/svg" viewBox="0 0 44 44"><defs><style>.cls-1{fill:#5c6fc6;}</style></defs><title>ic_date</title><path class="cls-1" d="M34.5,42.75H9.5A7.76,7.76,0,0,1,1.75,35V13.85A7.76,7.76,0,0,1,9.5,6.1h25a7.76,7.76,0,0,1,7.75,7.75V35A7.76,7.76,0,0,1,34.5,42.75ZM9.5,9.6a4.25,4.25,0,0,0-4.25,4.25V35A4.26,4.26,0,0,0,9.5,39.25h25A4.26,4.26,0,0,0,38.75,35V13.85A4.25,4.25,0,0,0,34.5,9.6Z"/><path class="cls-1" d="M40.5,20.14H3.5a1.75,1.75,0,0,1,0-3.5h37a1.75,1.75,0,0,1,0,3.5Z"/><path class="cls-1" d="M12.24,9.6a1.76,1.76,0,0,1-1.75-1.75V3A1.75,1.75,0,0,1,14,3V7.85A1.75,1.75,0,0,1,12.24,9.6Z"/><path class="cls-1" d="M31.73,9.6A1.75,1.75,0,0,1,30,7.85V3a1.75,1.75,0,1,1,3.5,0V7.85A1.75,1.75,0,0,1,31.73,9.6Z"/></svg>