<svg id="Layer_1" data-name="Layer 1" xmlns="http://www.w3.org/2000/svg" viewBox="0 0 44 44"><defs><style>.cls-1{fill:#898cec;}</style></defs><title>ic_entry</title><path class="cls-1" d="M41,42.75H9A7.76,7.76,0,0,1,1.25,35V9A7.76,7.76,0,0,1,9,1.25H41a1.75,1.75,0,0,1,0,3.5H9A4.26,4.26,0,0,0,4.75,9V35A4.26,4.26,0,0,0,9,39.25H41a1.75,1.75,0,0,1,0,3.5Z"/><path class="cls-1" d="M17,34.25a1.75,1.75,0,0,1-1.75-1.75v-21a1.75,1.75,0,0,1,3.5,0v21A1.75,1.75,0,0,1,17,34.25Z"/><path class="cls-1" d="M19.74,13.25H14.26a1.75,1.75,0,1,1,0-3.5h5.48a1.75,1.75,0,0,1,0,3.5Z"/><path class="cls-1" d="M19.74,34.25H14.26a1.75,1.75,0,1,1,0-3.5h5.48a1.75,1.75,0,0,1,0,3.5Z"/></svg>