<svg id="Layer_1" data-name="Layer 1" xmlns="http://www.w3.org/2000/svg" viewBox="0 0 44 44"><defs><style>.cls-1{fill:#b743ba;}</style></defs><title>ic_field</title><path class="cls-1" d="M31,20H13a1.75,1.75,0,0,1,0-3.5H31A1.75,1.75,0,0,1,31,20Z"/><path class="cls-1" d="M31,27.55H13a1.75,1.75,0,1,1,0-3.5H31a1.75,1.75,0,0,1,0,3.5Z"/><path class="cls-1" d="M24,35.15H13a1.75,1.75,0,0,1,0-3.5H24a1.75,1.75,0,0,1,0,3.5Z"/><path class="cls-1" d="M31,42.75H13A7.76,7.76,0,0,1,5.25,35V9A7.76,7.76,0,0,1,13,1.25H26.06a4.71,4.71,0,0,1,3.36,1.39l7.94,7.94a4.71,4.71,0,0,1,1.39,3.36V35A7.76,7.76,0,0,1,31,42.75Zm-18-38A4.26,4.26,0,0,0,8.75,9V35A4.26,4.26,0,0,0,13,39.25H31A4.26,4.26,0,0,0,35.25,35V13.94a1.22,1.22,0,0,0-.37-.88L26.94,5.12a1.23,1.23,0,0,0-.88-.37Z"/><path class="cls-1" d="M35,14.45H30.13a4.59,4.59,0,0,1-4.58-4.58V5a1.75,1.75,0,1,1,3.5,0V9.87A1.09,1.09,0,0,0,30.13,11H35a1.75,1.75,0,0,1,0,3.5Z"/></svg>