<?xml version="1.0" encoding="UTF-8"?>
<svg width="26px" height="26px" viewBox="0 0 26 26" version="1.1" xmlns="http://www.w3.org/2000/svg" xmlns:xlink="http://www.w3.org/1999/xlink">
    <!-- Generator: Sketch 63.1 (92452) - https://sketch.com -->
    <title>Icons/Help_b</title>
    <desc>Created with Sketch.</desc>
    <g id="Icons/Help_b" stroke="none" stroke-width="1" fill="none" fill-rule="evenodd">
        <g id="Group-5" transform="translate(3.000000, 3.000000)">
            <path d="M20,10 C20,4.478 15.522,0 10,0 C4.478,0 0,4.478 0,10 C0,15.522 4.478,20 10,20 C15.522,20 20,15.522 20,10 Z" id="Stroke-1" stroke="#1D2E3A" stroke-width="2" stroke-linecap="round" stroke-linejoin="round"></path>
            <path d="M10.6689,3.4492 C8.4419,3.1222 6.4739,4.4622 5.8249,6.4062 C5.5959,7.0932 6.1409,7.8002 6.8649,7.8002 L6.9059,7.8002 C7.3499,7.8002 7.7709,7.5372 7.9089,7.1162 C8.2449,6.0962 9.3099,5.4002 10.4799,5.6512 C11.4609,5.8622 12.1929,6.7812 12.1999,7.7852 C12.2129,9.6402 9.8909,9.7432 9.1349,11.8302 C8.8769,12.5422 9.3919,13.3002 10.1479,13.3002 L10.2989,13.3002 C10.7329,13.3002 11.0779,12.9912 11.2049,12.5752 C11.8009,10.6312 14.7139,10.2042 14.3719,7.3502 C14.1379,5.3902 12.6209,3.7362 10.6689,3.4492 M9.9999,16.5992 L9.9999,16.5992 C10.6069,16.5992 11.0999,16.1072 11.0999,15.5002 C11.0999,14.8922 10.6069,14.4002 9.9999,14.4002 C9.3929,14.4002 8.8999,14.8922 8.8999,15.5002 C8.8999,16.1072 9.3929,16.5992 9.9999,16.5992" id="Fill-3" fill="#1D2E3A"></path>
        </g>
    </g>
</svg>