<svg id="Layer_1" data-name="Layer 1" xmlns="http://www.w3.org/2000/svg" viewBox="0 0 44 44"><defs><style>.cls-1{fill:#8959c0;}</style></defs><title>ic_icon_button</title><path class="cls-1" d="M22,42.75A20.75,20.75,0,1,1,42.75,22,20.78,20.78,0,0,1,22,42.75Zm0-38A17.25,17.25,0,1,0,39.25,22,17.27,17.27,0,0,0,22,4.75Z"/><path class="cls-1" d="M22,36.17a1.74,1.74,0,0,1-1.17-.45l-1.5-1.34c-2-1.78-3.67-3.33-5-4.62a32,32,0,0,1-3.24-3.58A12.31,12.31,0,0,1,9.28,23a9.39,9.39,0,0,1-.53-3.1,8,8,0,0,1,8.07-8.07A8.81,8.81,0,0,1,22,13.57a8.81,8.81,0,0,1,5.18-1.74,8,8,0,0,1,8.07,8.07A9.07,9.07,0,0,1,34.73,23a11.23,11.23,0,0,1-1.8,3.15,36.32,36.32,0,0,1-3.25,3.58c-1.31,1.3-3,2.89-5.07,4.74l-1.44,1.3A1.79,1.79,0,0,1,22,36.17ZM16.82,15.33a4.48,4.48,0,0,0-4.57,4.57,5.84,5.84,0,0,0,.33,1.93,8.82,8.82,0,0,0,1.31,2.24,30.79,30.79,0,0,0,2.89,3.19c1.29,1.25,2.93,2.76,4.89,4.51l.33.3.27-.24c2-1.81,3.68-3.37,5-4.63A33.76,33.76,0,0,0,30.15,24a8.58,8.58,0,0,0,1.28-2.19,5.54,5.54,0,0,0,.32-1.9,4.48,4.48,0,0,0-4.57-4.57,5,5,0,0,0-2.12.47,4.81,4.81,0,0,0-1.72,1.3,1.81,1.81,0,0,1-2.68,0,4.81,4.81,0,0,0-1.72-1.3A5,5,0,0,0,16.82,15.33Z"/></svg>