<svg id="Layer_1" data-name="Layer 1" xmlns="http://www.w3.org/2000/svg" viewBox="0 0 44 44"><defs><style>.cls-1{fill:#5c6fc6;}</style></defs><title>Artboard 62</title><path class="cls-1" d="M40.5,34.25H23.75V32.12a1.75,1.75,0,0,0-3.5,0v7.76a1.75,1.75,0,0,0,3.5,0V37.75H40.5a1.75,1.75,0,0,0,0-3.5Z"/><path class="cls-1" d="M15.33,34.25H3.5a1.75,1.75,0,0,0,0,3.5H15.33a1.75,1.75,0,0,0,0-3.5Z"/><path class="cls-1" d="M12.2,28.79a1.75,1.75,0,0,0,2.28-1L17,21.47H27l2.54,6.35a1.76,1.76,0,0,0,1.63,1.1,1.71,1.71,0,0,0,.65-.13,1.74,1.74,0,0,0,1-2.27l-3-7.41,0-.12L23.61,3.63A1.75,1.75,0,0,0,22,2.53h0a1.76,1.76,0,0,0-1.63,1.1L11.23,26.52A1.74,1.74,0,0,0,12.2,28.79ZM22,9l3.6,9H18.41Z"/></svg>