<svg id="Layer_1" data-name="Layer 1" xmlns="http://www.w3.org/2000/svg" viewBox="0 0 44 44"><defs><style>.cls-1{fill:#bb3fa2;}</style></defs><title>ic_picker</title><path class="cls-1" d="M22,29.25a1.75,1.75,0,0,1-1.24-.51l-9-9a1.75,1.75,0,0,1,2.48-2.48L22,25l7.76-7.76a1.75,1.75,0,0,1,2.48,2.48l-9,9A1.75,1.75,0,0,1,22,29.25Z"/><path class="cls-1" d="M35,42.75H3a1.75,1.75,0,0,1,0-3.5H35A4.26,4.26,0,0,0,39.25,35V9A4.26,4.26,0,0,0,35,4.75H3a1.75,1.75,0,0,1,0-3.5H35A7.76,7.76,0,0,1,42.75,9V35A7.76,7.76,0,0,1,35,42.75Z"/></svg>