<svg width="44" height="44" viewBox="0 0 44 44" fill="none" xmlns="http://www.w3.org/2000/svg">
<path d="M10.5 21C8.81886 21 7.17547 20.5015 5.77766 19.5675C4.37984 18.6335 3.29037 17.306 2.64703 15.7528C2.00368 14.1996 1.83535 12.4906 2.16333 10.8417C2.4913 9.1929 3.30085 7.67834 4.4896 6.4896C5.67834 5.30085 7.1929 4.4913 8.84174 4.16333C10.4906 3.83535 12.1996 4.00368 13.7528 4.64703C15.306 5.29037 16.6335 6.37984 17.5675 7.77766C18.5015 9.17547 19 10.8189 19 12.5C18.9974 14.7536 18.1011 16.9141 16.5076 18.5076C14.9141 20.1011 12.7536 20.9974 10.5 21V21ZM10.5 6.42858C8.88976 6.42858 7.34547 7.06824 6.20685 8.20685C5.06824 9.34547 4.42858 10.8898 4.42858 12.5C4.42858 14.1102 5.06824 15.6545 6.20685 16.7931C7.34547 17.9318 8.88976 18.5714 10.5 18.5714C12.1102 18.5714 13.6545 17.9318 14.7931 16.7931C15.9318 15.6545 16.5714 14.1102 16.5714 12.5C16.5714 10.8898 15.9318 9.34547 14.7931 8.20685C13.6545 7.06824 12.1102 6.42858 10.5 6.42858V6.42858ZM10.5 16.1429C9.53386 16.1429 8.60728 15.7591 7.92411 15.0759C7.24095 14.3927 6.85715 13.4661 6.85715 12.5C6.85715 11.5339 7.24095 10.6073 7.92411 9.92411C8.60728 9.24095 9.53386 8.85715 10.5 8.85715C11.4661 8.85715 12.3927 9.24095 13.0759 9.92411C13.7591 10.6073 14.1429 11.5339 14.1429 12.5C14.1429 13.4661 13.7591 14.3927 13.0759 15.0759C12.3927 15.7591 11.4661 16.1429 10.5 16.1429Z" fill="#C83044"/>
<path d="M40.25 14.5H21.75C21.2859 14.5 20.8408 14.3156 20.5126 13.9874C20.1844 13.6592 20 13.2141 20 12.75C20 12.2859 20.1844 11.8408 20.5126 11.5126C20.8408 11.1844 21.2859 11 21.75 11H40.25C40.7141 11 41.1592 11.1844 41.4874 11.5126C41.8156 11.8408 42 12.2859 42 12.75C42 13.2141 41.8156 13.6592 41.4874 13.9874C41.1592 14.3156 40.7141 14.5 40.25 14.5V14.5Z" fill="#C83044"/>
<path d="M40.25 34.5H21.75C21.2859 34.5 20.8408 34.3156 20.5126 33.9874C20.1844 33.6592 20 33.2141 20 32.75C20 32.2859 20.1844 31.8408 20.5126 31.5126C20.8408 31.1844 21.2859 31 21.75 31H40.25C40.7141 31 41.1592 31.1844 41.4874 31.5126C41.8156 31.8408 42 32.2859 42 32.75C42 33.2141 41.8156 33.6592 41.4874 33.9874C41.1592 34.3156 40.7141 34.5 40.25 34.5V34.5Z" fill="#C83044"/>
<path d="M10.5 40C8.81886 40 7.17547 39.5308 5.77766 38.6518C4.37984 37.7727 3.29037 36.5233 2.64703 35.0615C2.00368 33.5997 1.83535 31.9911 2.16333 30.4393C2.4913 28.8874 3.30085 27.462 4.4896 26.3431C5.67834 25.2243 7.1929 24.4624 8.84174 24.1537C10.4906 23.845 12.1996 24.0035 13.7528 24.609C15.306 25.2145 16.6335 26.2398 17.5675 27.5554C18.5015 28.871 19 30.4178 19 32C18.9974 34.121 18.1011 36.1544 16.5076 37.6542C14.9141 39.1539 12.7536 39.9976 10.5 40V40ZM10.5 26.2857C8.88976 26.2857 7.34547 26.8878 6.20685 27.9594C5.06824 29.031 4.42858 30.4845 4.42858 32C4.42858 33.5155 5.06824 34.969 6.20685 36.0406C7.34547 37.1122 8.88976 37.7143 10.5 37.7143C12.1102 37.7143 13.6545 37.1122 14.7931 36.0406C15.9318 34.969 16.5714 33.5155 16.5714 32C16.5714 30.4845 15.9318 29.031 14.7931 27.9594C13.6545 26.8878 12.1102 26.2857 10.5 26.2857V26.2857Z" fill="#C83044"/>
</svg>
