<svg id="Layer_1" data-name="Layer 1" xmlns="http://www.w3.org/2000/svg" viewBox="0 0 44 44"><defs><style>.cls-1{fill:#bb3fa2;}</style></defs><title>Artboard 45</title><path class="cls-1" d="M22,42.75A20.75,20.75,0,1,1,42.75,22,20.78,20.78,0,0,1,22,42.75Zm0-38A17.25,17.25,0,1,0,39.25,22,17.27,17.27,0,0,0,22,4.75Z"/><path class="cls-1" d="M22,42.75A20.75,20.75,0,1,1,42.75,22,20.78,20.78,0,0,1,22,42.75Zm0-38A17.25,17.25,0,1,0,39.25,22,17.27,17.27,0,0,0,22,4.75Z"/><path class="cls-1" d="M22,32.24A10.24,10.24,0,1,1,32.24,22,10.26,10.26,0,0,1,22,32.24Zm0-17A6.74,6.74,0,1,0,28.74,22,6.76,6.76,0,0,0,22,15.26Z"/></svg>