<svg id="Layer_1" data-name="Layer 1" xmlns="http://www.w3.org/2000/svg" viewBox="0 0 44 44"><defs><style>.cls-1{fill:#c5345b;}</style></defs><title>ic_rating</title><path class="cls-1" d="M33.05,41.14a2.84,2.84,0,0,1-1.69-.55L22,33.79l-9.36,6.8a2.87,2.87,0,0,1-4.42-3.21l3.57-11-9.35-6.8a2.87,2.87,0,0,1,1.68-5.19H15.69l3.58-11a2.87,2.87,0,0,1,5.46,0l3.58,11H39.88a2.87,2.87,0,0,1,1.68,5.19l-9.35,6.8,3.57,11a2.87,2.87,0,0,1-2.73,3.76Zm-27-23.26,8.16,5.93a2.86,2.86,0,0,1,1,3.21l-3.11,9.6,8.16-5.93a2.87,2.87,0,0,1,3.38,0l8.16,5.93L28.74,27a2.86,2.86,0,0,1,1-3.21l8.16-5.93H27.85a2.86,2.86,0,0,1-2.73-2L22,6.29l-3.12,9.6a2.86,2.86,0,0,1-2.73,2Zm33.82,0ZM21.4,4.46Z"/></svg>