<svg id="Layer_1" data-name="Layer 1" xmlns="http://www.w3.org/2000/svg" viewBox="0 0 44 44"><defs><style>.cls-1{fill:#a04ebd;}</style></defs><title>Artboard 47</title><path class="cls-1" d="M41,39.25H9A4.26,4.26,0,0,1,4.75,35V9A4.26,4.26,0,0,1,9,4.75H41a1.75,1.75,0,0,0,0-3.5H9A7.76,7.76,0,0,0,1.25,9V35A7.76,7.76,0,0,0,9,42.75H41a1.75,1.75,0,0,0,0-3.5Z"/><path class="cls-1" d="M20.63,9.75A10.89,10.89,0,1,0,27,29.46l4.28,4.28a1.75,1.75,0,0,0,2.48-2.48L29.46,27A10.86,10.86,0,0,0,20.63,9.75Zm0,18.27A7.39,7.39,0,1,1,28,20.63,7.39,7.39,0,0,1,20.63,28Z"/></svg>