<svg id="Layer_1" data-name="Layer 1" xmlns="http://www.w3.org/2000/svg" viewBox="0 0 44 44"><defs><style>.cls-1{fill:#7364c3;}</style></defs><title>Artboard 49</title><path class="cls-1" d="M27,37.8h-.16l-10-.1A15.77,15.77,0,0,1,1.25,21.78,15.76,15.76,0,0,1,17.16,6.2l10,.1A15.77,15.77,0,0,1,42.75,22.22,15.76,15.76,0,0,1,27,37.8ZM17,9.7a12.25,12.25,0,0,0-.13,24.5l10,.1H27a12.25,12.25,0,0,0,.13-24.5l-10-.1Z"/><path class="cls-1" d="M17,31.79A9.79,9.79,0,1,1,26.75,22,9.8,9.8,0,0,1,17,31.79Zm0-16.08A6.29,6.29,0,1,0,23.25,22,6.29,6.29,0,0,0,17,15.71Z"/></svg>