<svg id="Layer_1" data-name="Layer 1" xmlns="http://www.w3.org/2000/svg" viewBox="0 0 26 26"><defs><style>.cls-1{fill:#828282;}</style></defs><title>Artboard 90</title><path class="cls-1" d="M13,8a5,5,0,1,0,5,5A5,5,0,0,0,13,8Zm0,8a3,3,0,1,1,3-3A3,3,0,0,1,13,16Z"/><path class="cls-1" d="M25,13.19A1.21,1.21,0,0,0,25,13a1.21,1.21,0,0,0,0-.19.76.76,0,0,0-.06-.16,1.21,1.21,0,0,0-.09-.2l0,0C24.6,12.12,19.44,5,13,5S1.4,12.12,1.19,12.42l0,0a1.21,1.21,0,0,0-.09.2.76.76,0,0,0-.06.16A1.21,1.21,0,0,0,1,13a1.21,1.21,0,0,0,0,.19.76.76,0,0,0,.06.16,1.21,1.21,0,0,0,.09.2l0,0C1.4,13.88,6.56,21,13,21s11.6-7.12,11.81-7.42l0,0a1.21,1.21,0,0,0,.09-.2A.76.76,0,0,0,25,13.19ZM13,19c-4.44,0-8.43-4.4-9.73-6C4.57,11.4,8.56,7,13,7s8.43,4.4,9.73,6C21.43,14.6,17.44,19,13,19Z"/></svg>