<svg id="Layer_1" data-name="Layer 1" xmlns="http://www.w3.org/2000/svg" viewBox="0 0 44 44"><defs><style>.cls-1{fill:#ee5572;}</style></defs><title>ic_slider</title><path class="cls-1" d="M15,22.07a8.36,8.36,0,1,1,8.4-8.36A8.39,8.39,0,0,1,15,22.07ZM15,8.86a4.86,4.86,0,1,0,4.9,4.85A4.88,4.88,0,0,0,15,8.86Z"/><path class="cls-1" d="M29,39.05a8.36,8.36,0,1,1,8.4-8.36A8.39,8.39,0,0,1,29,39.05Zm0-13.21a4.86,4.86,0,1,0,4.9,4.85A4.88,4.88,0,0,0,29,25.84Z"/><path class="cls-1" d="M41,15.87H22.5a1.75,1.75,0,0,1,0-3.5H41a1.75,1.75,0,0,1,0,3.5Z"/><path class="cls-1" d="M8.39,15.87H3a1.75,1.75,0,1,1,0-3.5H8.39a1.75,1.75,0,0,1,0,3.5Z"/><path class="cls-1" d="M21.5,32.85H3a1.75,1.75,0,0,1,0-3.5H21.5a1.75,1.75,0,0,1,0,3.5Z"/><path class="cls-1" d="M41,32.85H36.54a1.75,1.75,0,0,1,0-3.5H41a1.75,1.75,0,0,1,0,3.5Z"/></svg>