<svg id="Layer_1" data-name="Layer 1" xmlns="http://www.w3.org/2000/svg" viewBox="0 0 44 44"><defs><style>.cls-1{fill:#a04ebd;}</style></defs><title>ic_snackbar</title><path class="cls-1" d="M35,31.25h-.08L8.91,31a7.93,7.93,0,0,1-7.67-8.14l0-2.11A8.13,8.13,0,0,1,3.7,14.94a7.64,7.64,0,0,1,5.39-2.19l26,.28a7.93,7.93,0,0,1,7.67,8.14l0,2.11a8.13,8.13,0,0,1-2.44,5.78A7.57,7.57,0,0,1,35,31.25Zm-26-15a4.06,4.06,0,0,0-2.86,1.19,4.66,4.66,0,0,0-1.39,3.32l0,2.1A4.44,4.44,0,0,0,9,27.47l26,.28h0a4,4,0,0,0,2.9-1.19,4.66,4.66,0,0,0,1.39-3.32l0-2.1a4.44,4.44,0,0,0-4.21-4.61l-26-.28Z"/><path class="cls-1" d="M22,23.74h0l-12-.12a1.75,1.75,0,0,1-1.73-1.77A1.79,1.79,0,0,1,10,20.12l12,.12a1.75,1.75,0,0,1,0,3.5Z"/><path class="cls-1" d="M34,23.88h0l-3-.05a1.75,1.75,0,0,1,0-3.5h0l3,.05a1.75,1.75,0,0,1,0,3.5Z"/></svg>