<?xml version="1.0" encoding="UTF-8"?>
<svg width="18px" height="18px" viewBox="0 0 18 18" version="1.1" xmlns="http://www.w3.org/2000/svg" xmlns:xlink="http://www.w3.org/1999/xlink">
    <title>Icons/ic_inbox_g</title>
    <g id="UI" stroke="none" stroke-width="1" fill="none" fill-rule="evenodd">
        <g id="6.0-Historial" transform="translate(-44.000000, -149.000000)" fill="#051631" fill-rule="nonzero">
            <g id="Group" transform="translate(40.000000, 145.000000)">
                <g id="search_FILL1_wght400_GRAD0_opsz24" transform="translate(4.000000, 4.000000)">
                    <path d="M16.6,18 L10.3,11.7 C9.8,12.1 9.225,12.4166667 8.575,12.65 C7.925,12.8833333 7.23333333,13 6.5,13 C4.68333333,13 3.146,12.371 1.888,11.113 C0.629333333,9.85433333 0,8.31666667 0,6.5 C0,4.68333333 0.629333333,3.14566667 1.888,1.887 C3.146,0.629 4.68333333,0 6.5,0 C8.31666667,0 9.85433333,0.629 11.113,1.887 C12.371,3.14566667 13,4.68333333 13,6.5 C13,7.23333333 12.8833333,7.925 12.65,8.575 C12.4166667,9.225 12.1,9.8 11.7,10.3 L18,16.6 L16.6,18 Z M6.5,11 C7.75,11 8.81266667,10.5626667 9.688,9.688 C10.5626667,8.81266667 11,7.75 11,6.5 C11,5.25 10.5626667,4.18733333 9.688,3.312 C8.81266667,2.43733333 7.75,2 6.5,2 C5.25,2 4.18733333,2.43733333 3.312,3.312 C2.43733333,4.18733333 2,5.25 2,6.5 C2,7.75 2.43733333,8.81266667 3.312,9.688 C4.18733333,10.5626667 5.25,11 6.5,11 Z" id="Shape"></path>
                </g>
            </g>
        </g>
    </g>
</svg>