<svg width="79" height="26" viewBox="0 0 79 26" fill="none" xmlns="http://www.w3.org/2000/svg">
<path d="M0 8.66667C0 6.36812 1.0404 4.16372 2.89232 2.53841C4.74424 0.913092 7.25599 0 9.875 0H69.125C71.744 0 74.2558 0.913092 76.1077 2.53841C77.9596 4.16372 79 6.36812 79 8.66667V17.3333C79 19.6319 77.9596 21.8363 76.1077 23.4616C74.2558 25.0869 71.744 26 69.125 26H9.875C7.25599 26 4.74424 25.0869 2.89232 23.4616C1.0404 21.8363 0 19.6319 0 17.3333V8.66667ZM29.625 21.6667H49.375V4.33333H29.625V21.6667ZM74.0625 17.3333V8.66667C74.0625 7.5174 73.5423 6.4152 72.6163 5.60254C71.6904 4.78988 70.4345 4.33333 69.125 4.33333H54.3125V21.6667H69.125C70.4345 21.6667 71.6904 21.2101 72.6163 20.3975C73.5423 19.5848 74.0625 18.4826 74.0625 17.3333V17.3333Z" fill="#C83044"/>
</svg>
