<svg width="40" height="40" viewBox="0 0 40 40" fill="none" xmlns="http://www.w3.org/2000/svg">
<g clip-path="url(#clip0_145_68)">
<path d="M26 6H14C12.1615 6 10.341 6.36212 8.64243 7.06569C6.94387 7.76925 5.40053 8.80048 4.1005 10.1005C2.80048 11.4005 1.76925 12.9439 1.06569 14.6424C0.362121 16.341 0 18.1615 0 20C0 21.8385 0.362121 23.659 1.06569 25.3576C1.76925 27.0561 2.80048 28.5995 4.1005 29.8995C5.40053 31.1995 6.94387 32.2307 8.64243 32.9343C10.341 33.6379 12.1615 34 14 34H26C27.8385 34 29.659 33.6379 31.3576 32.9343C33.0561 32.2307 34.5995 31.1995 35.8995 29.8995C37.1995 28.5995 38.2307 27.0561 38.9343 25.3576C39.6379 23.659 40 21.8385 40 20C40 18.1615 39.6379 16.341 38.9343 14.6424C38.2307 12.9439 37.1995 11.4005 35.8995 10.1005C34.5995 8.80048 33.0561 7.76925 31.3576 7.06569C29.659 6.36212 27.8385 6 26 6V6ZM26 30C23.3476 29.9997 20.8039 28.9458 18.9285 27.0701C17.0532 25.1943 15.9997 22.6504 16 19.998C16.0003 17.3456 17.0542 14.8019 18.9299 12.9265C20.8057 11.0512 23.3496 9.99773 26.002 9.998C27.3154 9.99813 28.6158 10.2569 29.8291 10.7597C31.0425 11.2624 32.1449 11.9992 33.0735 12.9279C34.0021 13.8567 34.7386 14.9593 35.2411 16.1727C35.7436 17.3861 36.0021 18.6866 36.002 20C36.0019 21.3134 35.7431 22.6138 35.2403 23.8271C34.7376 25.0405 34.0008 26.1429 33.0721 27.0715C32.1433 28.0001 31.0407 28.7366 29.8273 29.2391C28.6139 29.7416 27.3134 30.0001 26 30V30Z" fill="#C83044"/>
</g>
<defs>
<clipPath id="clip0_145_68">
<rect width="40" height="40" fill="white"/>
</clipPath>
</defs>
</svg>
