<svg id="Layer_1" data-name="Layer 1" xmlns="http://www.w3.org/2000/svg" viewBox="0 0 44 44"><defs><style>.cls-1{fill:#c23873;}</style></defs><title>Artboard 43</title><path class="cls-1" d="M41,29.25H27.47C25,29.25,23,26.77,23,23.71V20.29c0-3.06,2-5.54,4.51-5.54H41a1.75,1.75,0,0,0,0-3.5H3a1.75,1.75,0,0,0,0,3.5H21.15a9.71,9.71,0,0,0-1.69,5.54v3.42a9.71,9.71,0,0,0,1.69,5.54H3a1.75,1.75,0,0,0,0,3.5H41a1.75,1.75,0,0,0,0-3.5Z"/><path class="cls-1" d="M3,23.75H13a1.75,1.75,0,0,0,0-3.5H3a1.75,1.75,0,0,0,0,3.5Z"/><path class="cls-1" d="M30,20.25a1.75,1.75,0,0,0,0,3.5H40a1.75,1.75,0,0,0,0-3.5Z"/></svg>