<svg id="Layer_1" data-name="Layer 1" xmlns="http://www.w3.org/2000/svg" viewBox="0 0 44 44"><defs><style>.cls-1{fill:#be3b8b;}</style></defs><title>ic_selection</title><path class="cls-1" d="M35,36.25H15.5A7.76,7.76,0,0,1,7.75,28.5V9A7.76,7.76,0,0,1,15.5,1.25H35A7.76,7.76,0,0,1,42.75,9V28.5A7.76,7.76,0,0,1,35,36.25ZM15.5,4.75A4.26,4.26,0,0,0,11.25,9V28.5a4.26,4.26,0,0,0,4.25,4.25H35a4.26,4.26,0,0,0,4.25-4.25V9A4.26,4.26,0,0,0,35,4.75Z"/><path class="cls-1" d="M35,42.75H9A7.76,7.76,0,0,1,1.25,35V9a1.75,1.75,0,0,1,3.5,0V35A4.26,4.26,0,0,0,9,39.25H35a1.75,1.75,0,0,1,0,3.5Z"/><path class="cls-1" d="M27,28.25H16.25a1.75,1.75,0,0,1,0-3.5H27a1.75,1.75,0,0,1,0,3.5Z"/><path class="cls-1" d="M34.25,20.5h-18a1.75,1.75,0,0,1,0-3.5h18a1.75,1.75,0,0,1,0,3.5Z"/><path class="cls-1" d="M34.25,12.75h-18a1.75,1.75,0,0,1,0-3.5h18a1.75,1.75,0,0,1,0,3.5Z"/></svg>