<svg id="Layer_1" data-name="Layer 1" xmlns="http://www.w3.org/2000/svg" viewBox="0 0 44 44"><defs><style>.cls-1{fill:#5c6fc6;}</style></defs><title>ic_top_app_bar</title><path class="cls-1" d="M40.79,39.25H9.26c-2.48,0-4.51-2.48-4.51-5.54V32.29c0-3.06,2-5.54,4.51-5.54H40.79a1.75,1.75,0,0,0,0-3.5H9.26c-4.41,0-8,4.06-8,9v1.42c0,5,3.6,9,8,9H40.79a1.75,1.75,0,0,0,0-3.5Z"/><path class="cls-1" d="M8.59,17.88a1.73,1.73,0,0,0,2.47,0,1.75,1.75,0,0,0,0-2.47L7.22,11.57H17a1.75,1.75,0,0,0,0-3.5H7.22l3.84-3.83A1.75,1.75,0,0,0,8.59,1.76L1.76,8.59a1.75,1.75,0,0,0,0,2.47Z"/></svg>