<?xml version="1.0" encoding="utf-8"?>
<!-- Generator: Adobe Illustrator 24.0.3, SVG Export Plug-In . SVG Version: 6.00 Build 0)  -->
<svg version="1.1" id="Layer_1" xmlns="http://www.w3.org/2000/svg" xmlns:xlink="http://www.w3.org/1999/xlink" x="0px" y="0px"
	 viewBox="0 0 26 26" style="enable-background:new 0 0 26 26;" xml:space="preserve">
<style type="text/css">
	.st0{fill:#1A1A1A;}
</style>
<title>Artboard 2</title>
<title>Artboard 108</title>
<g>
	<path class="st0" d="M13,8.5L15.2,7v4.4c0,0.6,0.4,1,1,1s1-0.4,1-1V5.2c0-0.4-0.2-0.7-0.5-0.9c-0.3-0.2-0.7-0.2-1,0.1l-3.8,2.5
		c-0.5,0.3-0.6,0.9-0.3,1.4C11.9,8.7,12.6,8.8,13,8.5z"/>
	<path class="st0" d="M22.3,20.7l-17-17c-0.5-0.5-1.2-0.5-1.7,0s-0.5,1.2,0,1.7l3,3H5.8c-0.6,0-1,0.4-1,1v7.3c0,0.6,0.4,1,1,1h3.9
		l6,4c0.2,0.1,0.4,0.2,0.6,0.2c0.2,0,0.3,0,0.5-0.1c0.3-0.2,0.5-0.5,0.5-0.9v-1.9l3.4,3.4c0.2,0.2,0.5,0.4,0.8,0.4s0.6-0.1,0.8-0.4
		C22.8,21.9,22.8,21.1,22.3,20.7z M15.2,19l-4.7-3.1c-0.2-0.1-0.4-0.2-0.6-0.2H6.8v-5.3h1.9l6.6,6.6V19z"/>
</g>
</svg>
