<svg width="24" height="24" viewBox="0 0 24 24" fill="none" xmlns="http://www.w3.org/2000/svg">
<g clip-path="url(#clip0_133_90)">
<path d="M12 24C9.62663 24 7.30655 23.2962 5.33316 21.9776C3.35977 20.6591 1.8217 18.7849 0.913451 16.5922C0.0051994 14.3995 -0.232441 11.9867 0.230582 9.65892C0.693605 7.33115 1.83649 5.19295 3.51472 3.51472C5.19295 1.83649 7.33115 0.693605 9.65892 0.230582C11.9867 -0.232441 14.3995 0.0051994 16.5922 0.913451C18.7849 1.8217 20.6591 3.35977 21.9776 5.33316C23.2962 7.30655 24 9.62663 24 12C23.9964 15.1815 22.7309 18.2316 20.4813 20.4813C18.2316 22.7309 15.1815 23.9964 12 24V24ZM12 3.42858C9.72672 3.42858 7.54654 4.33163 5.93909 5.93909C4.33163 7.54654 3.42858 9.72672 3.42858 12C3.42858 14.2733 4.33163 16.4535 5.93909 18.0609C7.54654 19.6684 9.72672 20.5714 12 20.5714C14.2733 20.5714 16.4535 19.6684 18.0609 18.0609C19.6684 16.4535 20.5714 14.2733 20.5714 12C20.5714 9.72672 19.6684 7.54654 18.0609 5.93909C16.4535 4.33163 14.2733 3.42858 12 3.42858V3.42858Z" fill="#D3D3D3"/>
</g>
<defs>
<clipPath id="clip0_133_90">
<rect width="24" height="24" fill="white"/>
</clipPath>
</defs>
</svg>
