<svg id="svg" version="1.1" xmlns="http://www.w3.org/2000/svg" xmlns:xlink="http://www.w3.org/1999/xlink" width="400" height="25" viewBox="0, 0, 400,25"><g id="svgg"><path id="path0" d="M38.333 0.250 C 38.333 0.471,36.070 0.505,19.125 0.541 L -0.083 0.582 19.000 0.628 C 29.496 0.654,38.252 0.634,38.458 0.584 C 38.874 0.484,38.978 0.000,38.583 0.000 C 38.446 0.000,38.333 0.112,38.333 0.250 M40.833 0.161 C 40.833 0.640,41.888 0.667,60.546 0.667 C 79.210 0.667,79.635 0.674,80.588 1.002 C 81.123 1.186,81.679 1.301,81.822 1.258 C 82.495 1.055,117.327 1.120,117.573 1.325 C 117.907 1.602,118.793 1.588,119.115 1.300 C 120.014 0.496,120.477 1.782,119.830 3.283 C 119.632 3.741,119.634 3.859,119.842 4.117 C 120.064 4.393,120.037 19.719,119.809 22.450 C 119.693 23.832,121.462 23.715,99.635 23.777 C 85.968 23.815,81.516 23.876,80.969 24.034 C 80.410 24.195,71.334 24.264,40.167 24.344 C 18.121 24.400,27.308 24.402,60.583 24.348 C 93.858 24.294,138.558 24.254,159.917 24.260 C 181.275 24.265,190.265 24.246,179.893 24.218 L 161.037 24.165 160.938 23.624 C 160.884 23.327,160.831 18.077,160.820 11.958 L 160.800 0.833 141.306 0.833 C 121.653 0.833,121.167 0.819,121.167 0.244 C 121.167 -0.183,119.210 -0.091,118.851 0.353 L 118.564 0.707 79.949 0.582 C 47.395 0.477,41.333 0.421,41.333 0.229 C 41.333 0.103,41.221 0.000,41.083 0.000 C 40.946 0.000,40.833 0.072,40.833 0.161 M364.127 0.618 C 364.334 0.658,364.634 0.656,364.794 0.615 C 364.953 0.573,364.783 0.540,364.417 0.542 C 364.050 0.544,363.920 0.578,364.127 0.618 M81.254 2.301 C 81.226 2.330,81.241 2.498,81.288 2.676 C 81.379 3.027,81.826 3.107,82.110 2.824 C 82.277 2.657,83.836 2.580,84.917 2.685 C 86.714 2.861,118.000 2.646,118.000 2.458 C 118.000 2.271,81.440 2.115,81.254 2.301 M84.524 4.981 C 84.108 5.246,84.515 5.250,101.000 5.164 L 117.417 5.078 101.305 5.039 C 92.444 5.017,85.094 4.963,84.972 4.918 C 84.850 4.874,84.648 4.902,84.524 4.981 " stroke="none" fill="#bbdf61" fill-rule="evenodd"></path><path id="path1" d="M39.422 0.318 C 39.254 0.846,39.399 0.842,19.933 0.858 C 9.565 0.867,0.840 0.911,0.542 0.956 L -0.000 1.038 -0.000 12.499 L 0.000 23.961 0.375 24.062 C 0.581 24.117,18.471 24.163,40.129 24.164 L 79.508 24.167 79.671 23.739 C 79.848 23.274,79.907 1.718,79.732 1.264 C 79.641 1.025,77.784 0.998,60.524 0.983 C 40.615 0.966,40.685 0.968,40.419 0.370 C 40.213 -0.092,39.562 -0.126,39.422 0.318 " stroke="none" fill="#05b405" fill-rule="evenodd"></path><path id="path2" d="M0.000 0.250 C 0.000 0.471,2.241 0.500,19.167 0.500 C 36.093 0.500,38.333 0.471,38.333 0.250 C 38.333 0.029,36.093 0.000,19.167 0.000 C 2.241 0.000,0.000 0.029,0.000 0.250 M41.333 0.229 C 41.333 0.421,47.390 0.477,79.917 0.582 C 119.237 0.709,119.000 0.712,119.000 0.146 C 119.000 0.063,102.332 0.000,80.167 0.000 C 47.368 0.000,41.333 0.036,41.333 0.229 M121.167 0.244 C 121.167 0.378,121.312 0.566,121.489 0.661 C 121.995 0.932,198.955 0.894,199.487 0.623 C 200.729 -0.011,201.428 0.000,160.597 0.000 C 126.080 0.000,121.167 0.030,121.167 0.244 M201.333 0.161 C 201.333 0.659,202.476 0.674,239.989 0.668 C 276.848 0.663,278.833 0.638,278.833 0.171 C 278.833 0.055,266.430 0.000,240.083 0.000 C 215.303 0.000,201.333 0.058,201.333 0.161 M280.707 0.208 C 280.745 0.324,281.251 0.481,281.846 0.562 C 283.639 0.806,358.708 0.461,358.792 0.208 C 358.847 0.042,350.965 0.000,319.750 0.000 C 288.536 0.000,280.653 0.042,280.707 0.208 M361.208 0.208 C 361.323 0.552,400.000 0.594,400.000 0.251 C 400.000 0.029,397.754 0.000,380.569 0.000 C 365.099 0.000,361.153 0.042,361.208 0.208 M98.500 24.332 C 85.987 24.398,58.706 24.462,37.875 24.476 C 4.330 24.497,0.000 24.529,0.000 24.750 C 0.000 24.972,22.333 25.000,200.000 25.000 C 367.071 25.000,400.000 24.963,400.000 24.777 C 400.000 24.590,383.407 24.536,299.875 24.447 C 244.806 24.389,182.088 24.313,160.500 24.277 C 138.912 24.242,111.013 24.267,98.500 24.332 " stroke="none" fill="#f3f5ee" fill-rule="evenodd"></path><path id="path3" d="M359.833 0.230 C 359.833 0.743,359.313 0.904,357.607 0.916 C 356.677 0.923,347.428 0.945,337.052 0.964 L 318.188 1.000 318.197 1.680 C 318.211 2.687,317.920 2.841,317.645 1.972 L 317.417 1.250 300.833 1.167 C 289.874 1.112,284.208 1.140,284.128 1.250 C 284.052 1.353,284.004 1.337,284.003 1.208 C 283.996 0.690,282.329 0.965,281.626 1.600 C 281.085 2.089,280.872 2.183,280.481 2.104 C 279.940 1.996,279.941 1.992,279.996 3.333 C 280.016 3.837,280.101 4.275,280.183 4.306 C 280.388 4.381,280.374 5.288,280.167 5.417 C 280.059 5.483,280.000 8.715,280.000 14.568 L 280.000 23.616 283.958 23.725 C 287.278 23.817,317.992 23.900,318.375 23.818 C 318.786 23.730,318.941 23.748,319.151 23.906 C 319.312 24.028,325.852 24.097,340.234 24.126 C 352.559 24.151,360.989 24.108,360.853 24.019 C 360.618 23.867,360.546 6.948,360.774 5.487 C 360.852 4.982,360.787 4.803,360.346 4.320 L 359.825 3.750 360.329 3.512 C 360.850 3.265,360.976 2.876,360.642 2.542 C 360.498 2.398,360.512 2.256,360.699 1.967 C 361.035 1.448,361.218 0.667,361.003 0.667 C 360.910 0.667,360.833 0.517,360.833 0.333 C 360.833 0.074,360.722 0.000,360.333 0.000 C 360.020 0.000,359.833 0.086,359.833 0.230 M279.762 0.981 C 279.570 1.291,280.123 1.535,280.527 1.319 C 280.896 1.121,280.898 1.110,280.580 0.986 C 280.125 0.808,279.869 0.807,279.762 0.981 M361.688 1.020 C 361.965 1.122,362.426 1.124,362.938 1.026 C 363.748 0.871,363.748 0.871,362.500 0.865 C 361.510 0.861,361.341 0.893,361.688 1.020 M364.792 0.951 C 364.998 0.991,365.335 0.991,365.542 0.951 C 365.748 0.911,365.579 0.879,365.167 0.879 C 364.754 0.879,364.585 0.911,364.792 0.951 M374.221 0.958 C 378.697 0.983,385.972 0.983,390.388 0.958 C 394.804 0.934,391.142 0.913,382.250 0.913 C 373.358 0.913,369.745 0.934,374.221 0.958 M284.167 2.301 C 284.167 3.073,282.523 3.649,281.098 3.377 C 280.304 3.225,280.747 2.919,281.885 2.833 C 282.791 2.765,283.042 2.681,283.256 2.375 C 283.576 1.919,284.167 1.871,284.167 2.301 M398.667 2.438 C 398.667 2.652,398.775 2.687,399.188 2.604 C 399.474 2.547,399.793 2.495,399.896 2.488 C 400.209 2.469,399.443 2.191,399.042 2.178 C 398.802 2.171,398.667 2.264,398.667 2.438 M319.729 4.214 C 320.172 4.538,319.528 5.116,319.025 4.847 C 318.790 4.721,313.473 4.666,301.469 4.664 C 290.640 4.663,284.157 4.602,284.000 4.500 C 283.808 4.376,283.866 4.338,284.250 4.336 C 284.525 4.335,292.365 4.330,301.673 4.324 C 311.751 4.318,318.694 4.251,318.839 4.159 C 319.172 3.949,319.384 3.962,319.729 4.214 M319.958 17.458 C 319.932 19.635,319.910 17.854,319.910 13.500 C 319.910 9.146,319.932 7.365,319.958 9.542 C 319.985 11.719,319.985 15.281,319.958 17.458 M399.667 13.500 C 399.667 18.611,399.725 21.333,399.833 21.333 C 399.942 21.333,400.000 18.611,400.000 13.500 C 400.000 8.389,399.942 5.667,399.833 5.667 C 399.725 5.667,399.667 8.389,399.667 13.500 M398.739 22.734 C 398.630 23.170,398.746 23.500,399.010 23.500 C 399.217 23.500,399.213 22.548,399.005 22.420 C 398.916 22.365,398.796 22.506,398.739 22.734 " stroke="none" fill="#d8310c" fill-rule="evenodd"></path><path id="path4" d="M199.811 0.381 L 199.539 0.750 180.202 0.794 L 160.866 0.837 160.808 2.340 C 160.726 4.453,160.899 23.957,161.000 24.047 C 161.165 24.193,220.000 24.334,309.083 24.402 L 399.917 24.470 320.144 24.335 C 262.383 24.236,240.276 24.148,240.027 24.014 C 239.686 23.832,239.682 23.739,239.644 14.790 C 239.590 2.089,239.593 2.230,239.369 1.960 C 239.210 1.768,239.256 1.641,239.599 1.319 L 240.027 0.917 259.055 0.879 C 278.271 0.842,279.333 0.808,279.333 0.243 C 279.333 -0.090,278.999 -0.063,278.740 0.292 C 278.508 0.609,203.298 0.926,202.032 0.615 C 201.729 0.540,201.440 0.371,201.390 0.240 C 201.238 -0.155,200.134 -0.056,199.811 0.381 M280.167 0.161 C 280.167 0.405,280.667 0.618,281.500 0.729 C 282.015 0.798,282.172 0.778,282.000 0.667 C 281.862 0.578,281.541 0.504,281.286 0.503 C 281.030 0.501,280.780 0.388,280.727 0.250 C 280.622 -0.024,280.167 -0.097,280.167 0.161 M358.773 0.250 C 358.689 0.470,356.354 0.505,339.380 0.541 L 320.083 0.582 339.083 0.630 C 358.474 0.679,359.167 0.666,359.167 0.242 C 359.167 -0.075,358.896 -0.070,358.773 0.250 M362.292 0.621 C 362.590 0.658,363.077 0.658,363.375 0.621 C 363.673 0.584,363.429 0.553,362.833 0.553 C 362.238 0.553,361.994 0.584,362.292 0.621 M373.388 0.625 C 378.047 0.650,385.622 0.650,390.221 0.625 C 394.820 0.600,391.008 0.580,381.750 0.580 C 372.492 0.580,368.729 0.600,373.388 0.625 M291.971 0.792 C 296.859 0.816,304.809 0.816,309.638 0.792 C 314.466 0.767,310.467 0.747,300.750 0.747 C 291.033 0.747,287.083 0.767,291.971 0.792 M319.127 0.785 C 319.334 0.824,319.634 0.823,319.794 0.781 C 319.953 0.739,319.783 0.707,319.417 0.709 C 319.050 0.711,318.920 0.745,319.127 0.785 " stroke="none" fill="#fab134" fill-rule="evenodd"></path><path id="path5" d="M278.250 1.005 C 277.883 1.080,277.404 1.208,277.184 1.291 C 276.929 1.387,276.357 1.365,275.601 1.230 C 274.695 1.067,270.366 1.015,257.154 1.009 L 239.891 1.000 239.530 1.385 C 239.250 1.683,239.214 1.814,239.368 1.968 C 239.594 2.194,239.590 2.009,239.644 14.790 C 239.679 23.123,239.704 23.840,239.966 23.957 C 240.122 24.026,257.612 24.045,278.833 23.998 C 300.054 23.951,310.629 23.895,302.333 23.873 C 294.037 23.851,285.619 23.783,283.625 23.723 L 280.000 23.614 280.000 14.567 C 280.000 8.715,280.059 5.483,280.167 5.417 C 280.374 5.288,280.388 4.381,280.183 4.306 C 280.055 4.258,279.916 2.836,279.979 2.212 C 279.993 2.079,280.164 2.041,280.476 2.104 C 280.854 2.179,281.080 2.086,281.577 1.650 C 282.292 1.022,282.154 0.857,280.917 0.857 C 280.430 0.857,280.339 0.891,280.580 0.986 C 280.898 1.110,280.896 1.121,280.527 1.319 C 280.123 1.535,279.570 1.291,279.762 0.981 C 279.870 0.806,279.179 0.817,278.250 1.005 M331.208 0.958 C 335.677 0.983,342.990 0.983,347.458 0.958 C 351.927 0.934,348.271 0.913,339.333 0.913 C 330.396 0.913,326.740 0.934,331.208 0.958 M301.417 1.165 L 317.417 1.250 317.645 1.972 C 317.949 2.932,318.249 2.601,318.186 1.375 L 318.167 1.000 301.792 1.040 L 285.417 1.081 301.417 1.165 M283.552 2.228 C 283.661 2.513,282.739 2.818,281.596 2.875 C 281.145 2.898,280.748 3.001,280.714 3.104 C 280.548 3.611,283.572 3.417,283.952 2.897 C 284.287 2.439,284.220 2.000,283.816 2.000 C 283.587 2.000,283.495 2.080,283.552 2.228 M241.167 2.333 C 241.167 2.425,241.017 2.500,240.833 2.500 C 240.650 2.500,240.500 2.425,240.500 2.333 C 240.500 2.242,240.650 2.167,240.833 2.167 C 241.017 2.167,241.167 2.242,241.167 2.333 M274.125 2.375 C 274.052 2.594,243.386 2.792,242.204 2.581 C 240.292 2.240,243.080 2.167,258.024 2.167 C 270.886 2.167,274.180 2.209,274.125 2.375 M277.847 2.333 C 277.931 2.333,278.000 2.446,278.000 2.583 C 278.000 2.721,278.075 2.833,278.167 2.833 C 278.258 2.833,278.333 2.908,278.333 3.000 C 278.333 3.092,277.927 3.167,277.431 3.167 C 276.662 3.167,276.538 3.124,276.585 2.875 C 276.616 2.715,276.647 2.533,276.654 2.471 C 276.671 2.319,277.195 2.191,277.472 2.270 C 277.594 2.305,277.763 2.333,277.847 2.333 M318.839 4.159 C 318.694 4.251,311.751 4.318,301.673 4.324 C 292.365 4.330,284.525 4.335,284.250 4.336 C 283.866 4.338,283.808 4.376,284.000 4.500 C 284.157 4.602,290.640 4.663,301.469 4.664 C 313.473 4.666,318.790 4.721,319.025 4.847 C 319.528 5.116,320.172 4.538,319.729 4.214 C 319.384 3.962,319.172 3.949,318.839 4.159 M275.500 5.064 C 275.500 5.205,274.652 5.279,274.570 5.144 C 274.520 5.065,274.710 5.000,274.990 5.000 C 275.271 5.000,275.500 5.029,275.500 5.064 M319.910 13.500 C 319.910 17.854,319.932 19.635,319.958 17.458 C 319.985 15.281,319.985 11.719,319.958 9.542 C 319.932 7.365,319.910 9.146,319.910 13.500 M318.391 23.834 C 318.314 23.908,318.100 24.004,317.917 24.048 C 317.733 24.092,318.333 24.124,319.250 24.118 C 320.167 24.113,320.579 24.082,320.167 24.049 C 319.754 24.016,319.304 23.943,319.167 23.886 C 318.739 23.710,318.538 23.696,318.391 23.834 " stroke="none" fill="#fa6c3b" fill-rule="evenodd"></path><path id="path6" d="M38.833 0.232 C 38.833 0.657,38.406 0.667,19.153 0.667 C 8.619 0.667,-0.000 0.723,-0.000 0.792 C -0.000 0.886,19.486 0.907,38.696 0.834 C 38.997 0.833,39.500 0.408,39.500 0.155 C 39.500 0.070,39.350 0.000,39.167 0.000 C 38.983 0.000,38.833 0.104,38.833 0.232 M40.333 0.230 C 40.333 0.929,39.932 0.914,60.226 0.961 C 75.340 0.996,79.596 1.050,79.698 1.211 C 79.893 1.518,79.866 23.225,79.670 23.741 L 79.507 24.169 39.754 24.126 C 17.889 24.103,-0.000 24.140,-0.000 24.208 C 0.000 24.481,79.387 24.355,80.571 24.080 C 81.504 23.864,84.275 23.820,99.623 23.777 C 121.463 23.715,119.693 23.832,119.809 22.450 C 120.037 19.719,120.064 4.393,119.842 4.117 C 119.634 3.859,119.632 3.741,119.830 3.283 C 120.477 1.782,120.014 0.496,119.115 1.300 C 118.793 1.588,117.907 1.602,117.573 1.325 C 117.327 1.120,82.495 1.055,81.822 1.258 C 81.679 1.301,81.123 1.186,80.588 1.002 C 79.635 0.674,79.210 0.667,60.474 0.667 C 41.556 0.667,41.329 0.663,41.000 0.333 C 40.612 -0.054,40.333 -0.098,40.333 0.230 M118.000 2.458 C 118.000 2.646,86.714 2.861,84.917 2.685 C 83.836 2.580,82.277 2.657,82.110 2.824 C 81.826 3.107,81.379 3.027,81.288 2.676 C 81.241 2.498,81.226 2.330,81.254 2.301 C 81.440 2.115,118.000 2.271,118.000 2.458 M101.305 5.039 L 117.417 5.078 101.000 5.164 C 91.971 5.211,84.519 5.222,84.441 5.188 C 84.213 5.088,84.726 4.828,84.972 4.918 C 85.094 4.963,92.444 5.017,101.305 5.039 " stroke="none" fill="#5cd444" fill-rule="evenodd"></path><path id="path7" d="M279.333 0.234 C 279.333 0.805,278.496 0.833,259.933 0.872 L 241.583 0.911 258.500 1.011 C 268.612 1.071,275.685 1.177,276.083 1.275 C 276.578 1.396,276.922 1.379,277.417 1.207 C 277.783 1.080,278.871 0.917,279.833 0.845 C 280.796 0.774,281.377 0.704,281.125 0.691 C 280.873 0.678,280.517 0.517,280.333 0.333 C 279.950 -0.050,279.333 -0.111,279.333 0.234 M359.167 0.242 C 359.167 0.657,359.048 0.658,319.875 0.705 C 298.247 0.730,281.667 0.813,281.667 0.896 C 281.667 1.101,359.147 0.855,359.533 0.649 C 359.937 0.433,359.915 0.000,359.500 0.000 C 359.317 0.000,359.167 0.109,359.167 0.242 M360.833 0.284 C 360.833 0.843,360.527 0.835,380.722 0.794 L 400.083 0.754 380.695 0.669 C 361.746 0.585,361.301 0.576,361.070 0.260 C 360.838 -0.058,360.833 -0.057,360.833 0.284 M240.500 2.333 C 240.500 2.425,240.650 2.500,240.833 2.500 C 241.017 2.500,241.167 2.425,241.167 2.333 C 241.167 2.242,241.017 2.167,240.833 2.167 C 240.650 2.167,240.500 2.242,240.500 2.333 M241.755 2.325 C 241.555 2.649,243.099 2.677,258.403 2.631 C 270.743 2.593,274.070 2.539,274.125 2.375 C 274.212 2.114,241.916 2.064,241.755 2.325 M276.958 2.282 C 276.798 2.324,276.661 2.409,276.654 2.471 C 276.647 2.533,276.616 2.715,276.585 2.875 C 276.538 3.124,276.662 3.167,277.431 3.167 C 277.927 3.167,278.333 3.092,278.333 3.000 C 278.333 2.908,278.258 2.833,278.167 2.833 C 278.075 2.833,278.000 2.721,278.000 2.583 C 278.000 2.446,277.931 2.333,277.847 2.333 C 277.763 2.333,277.594 2.305,277.472 2.270 C 277.350 2.235,277.119 2.240,276.958 2.282 M274.570 5.144 C 274.652 5.279,275.500 5.205,275.500 5.064 C 275.500 5.029,275.271 5.000,274.990 5.000 C 274.710 5.000,274.520 5.065,274.570 5.144 M263.167 24.166 C 285.847 24.292,400.104 24.378,399.986 24.270 C 399.948 24.234,364.329 24.170,320.833 24.127 C 277.337 24.083,251.387 24.101,263.167 24.166 " stroke="none" fill="#f56a4c" fill-rule="evenodd"></path><path id="path8" d="M361.064 1.127 C 361.015 1.286,360.859 1.630,360.719 1.890 C 360.532 2.237,360.513 2.413,360.648 2.548 C 360.976 2.876,360.846 3.267,360.329 3.512 L 359.825 3.750 360.346 4.320 C 360.787 4.803,360.852 4.982,360.774 5.487 C 360.546 6.948,360.618 23.867,360.853 24.016 C 360.981 24.097,369.726 24.163,380.542 24.164 L 400.000 24.167 400.000 22.750 C 400.000 21.917,399.931 21.333,399.833 21.333 C 399.725 21.333,399.667 18.611,399.667 13.500 C 399.667 8.389,399.725 5.667,399.833 5.667 C 399.933 5.667,400.000 5.023,400.000 4.069 L 400.000 2.471 399.333 2.583 C 398.771 2.678,398.667 2.651,398.667 2.410 C 398.667 2.170,398.773 2.141,399.333 2.231 L 400.000 2.337 400.000 1.627 L 400.000 0.917 381.792 0.948 C 371.777 0.965,363.236 1.023,362.811 1.076 C 362.386 1.129,361.840 1.097,361.597 1.005 C 361.232 0.866,361.139 0.888,361.064 1.127 M399.167 23.010 C 399.167 23.498,398.951 23.659,398.744 23.324 C 398.589 23.072,398.811 22.300,399.005 22.420 C 399.094 22.475,399.167 22.740,399.167 23.010 " stroke="none" fill="#a43010" fill-rule="evenodd"></path></g></svg>