<svg id="Layer_1" data-name="Layer 1" xmlns="http://www.w3.org/2000/svg" viewBox="0 0 26 26"><defs><style>.cls-1{fill:#2e85cc;}</style></defs><title>Artboard 50</title><path class="cls-1" d="M19.66,24.92a1.65,1.65,0,0,1-1-.32L13,20.48,7.33,24.6a1.67,1.67,0,0,1-2.58-1.87l2.16-6.67L1.24,11.94a1.68,1.68,0,0,1,1-3h7l2.17-6.67A1.67,1.67,0,0,1,13,1.07h0a1.67,1.67,0,0,1,1.59,1.16h0L16.76,8.9h7a1.68,1.68,0,0,1,1,3l-5.67,4.12,2.16,6.67a1.67,1.67,0,0,1-1.59,2.19ZM3.22,10.9l5.06,3.68a1.68,1.68,0,0,1,.61,1.87L7,22.4,12,18.72a1.71,1.71,0,0,1,2,0l5,3.68-1.93-5.95a1.68,1.68,0,0,1,.61-1.87l5.06-3.68H16.53a1.67,1.67,0,0,1-1.6-1.16L13,3.8,11.07,9.74a1.67,1.67,0,0,1-1.6,1.16ZM16.84,9.13ZM12.69,2.85Z"/></svg>