<?xml version="1.0" encoding="iso-8859-1"?>
<!-- Generator: Adobe Illustrator 19.0.0, SVG Export Plug-In . SVG Version: 6.00 Build 0)  -->
<svg version="1.1" id="Capa_1" xmlns="http://www.w3.org/2000/svg" xmlns:xlink="http://www.w3.org/1999/xlink" x="0px" y="0px"
	 viewBox="0 0 469.333 469.333" style="enable-background:new 0 0 469.333 469.333;" xml:space="preserve">
<g>
	<g>
		<g>
			<path d="M206.885,43.544c-3.875-1.698-8.448-0.896-11.542,2.042L85.49,149.336H10.667C4.771,149.336,0,154.107,0,160.002v149.333
				c0,5.896,4.771,10.667,10.667,10.667H85.49l109.854,103.75c2.021,1.917,4.656,2.917,7.323,2.917c1.427,0,2.865-0.281,4.219-0.875
				c3.917-1.677,6.448-5.531,6.448-9.792V53.336C213.333,49.075,210.802,45.221,206.885,43.544z"/>
			<path d="M262.452,174.884l-15.199,15.199c-3.505,3.505-4.44,9.168-1.513,13.168c6.449,8.819,10.26,19.682,10.26,31.418
				c0,11.736-3.811,22.599-10.26,31.417c-2.927,4-1.992,9.664,1.513,13.169l15.199,15.198c4.655,4.656,12.259,3.939,16.28-1.276
				c12.495-16.208,19.935-36.505,19.935-58.508c0-22.004-7.44-42.301-19.935-58.509
				C274.711,170.945,267.107,170.228,262.452,174.884z"/>
			<path d="M338.423,114.575c-4.01-4.53-11.151-4.512-15.428-0.234l-15.092,15.092c-4.043,4.042-4.005,10.395-0.27,14.721
				c20.991,24.307,33.701,55.954,33.701,90.514c0,34.56-12.71,66.207-33.701,90.516c-3.736,4.326-3.772,10.677,0.27,14.719
				l15.092,15.092c4.277,4.279,11.418,4.296,15.43-0.233C366.771,322.755,384,280.686,384,234.669
				C384,188.651,366.771,146.582,338.423,114.575z"/>
			<path d="M398.764,54.138c-4.082-4.43-11.151-4.417-15.409-0.158l-15.112,15.112c-4.053,4.053-4.033,10.451-0.167,14.685
				c36.376,39.84,58.59,92.822,58.59,150.892s-22.214,111.051-58.59,150.892c-3.865,4.234-3.887,10.632,0.167,14.685l15.112,15.111
				c4.259,4.26,11.328,4.272,15.41-0.158c43.79-47.529,70.568-110.961,70.568-180.53
				C469.333,165.099,442.555,101.666,398.764,54.138z"/>
		</g>
	</g>
</g>
<g>
</g>
<g>
</g>
<g>
</g>
<g>
</g>
<g>
</g>
<g>
</g>
<g>
</g>
<g>
</g>
<g>
</g>
<g>
</g>
<g>
</g>
<g>
</g>
<g>
</g>
<g>
</g>
<g>
</g>
</svg>
